<?xml version="1.0" standalone="no"?><!DOCTYPE svg PUBLIC "-//W3C//DTD SVG 1.1//EN" "http://www.w3.org/Graphics/SVG/1.1/DTD/svg11.dtd"><svg class="icon" width="200px" height="200.00px" viewBox="0 0 1024 1024" version="1.1" xmlns="http://www.w3.org/2000/svg"><path d="M777.752381 947.2h-585.142857c-64.609524 0-117.028571-52.419048-117.028572-117.028571v-585.142858c0-64.609524 52.419048-117.028571 117.028572-117.028571h585.142857c64.609524 0 117.028571 52.419048 117.028571 117.028571v585.142858c0 64.609524-52.419048 117.028571-117.028571 117.028571z m-585.142857-738.742857c-19.504762 0-35.352381 15.847619-35.352381 35.352381v585.142857c0 19.504762 15.847619 35.352381 35.352381 35.352381h585.142857c19.504762 0 35.352381-15.847619 35.352381-35.352381V243.809524c0-19.504762-15.847619-35.352381-35.352381-35.352381h-585.142857z" fill="#399CF9" /><path d="M871.619048 815.542857h-585.142858c-42.666667 0-76.8-34.133333-76.8-76.8v-585.142857c0-42.666667 34.133333-76.8 76.8-76.8h585.142858c42.666667 0 76.8 34.133333 76.8 76.8v585.142857c0 42.666667-34.133333 76.8-76.8 76.8z" fill="#D3E6F4" /><path d="M520.533333 181.638095c-88.990476-6.095238-165.790476 60.952381-174.323809 148.72381-3.657143 95.085714 69.485714 175.542857 163.352381 180.419047 88.990476 0 162.133333-70.704762 164.571428-159.695238 3.657143-88.990476-64.609524-163.352381-153.6-169.447619z" fill="#A9D3F7" /><path d="M804.571429 703.390476H381.561905c-23.161905 0-42.666667-19.504762-42.666667-42.666666V658.285714c0-23.161905 19.504762-42.666667 42.666667-42.666666H804.571429c23.161905 0 42.666667 19.504762 42.666666 42.666666v2.438096c0 23.161905-19.504762 42.666667-42.666666 42.666666zM738.742857 541.257143h-109.714286l-54.857142-95.085714 54.857142-95.085715h109.714286l54.857143 95.085715-54.857143 95.085714z m-91.428571-31.695238h73.142857l36.571428-63.390476-36.571428-63.390477h-73.142857l-36.571429 63.390477 36.571429 63.390476z" fill="#399CF9" /></svg>