<?xml version="1.0" standalone="no"?><!DOCTYPE svg PUBLIC "-//W3C//DTD SVG 1.1//EN" "http://www.w3.org/Graphics/SVG/1.1/DTD/svg11.dtd"><svg class="icon" width="200px" height="199.03px" viewBox="0 0 1029 1024" version="1.1" xmlns="http://www.w3.org/2000/svg"><path d="M478.870588 430.381176L918.989804 63.447843l41.261176 49.091765L524.448627 475.858824l388.417255 388.21647-45.477647 45.176471-392.432941-392.131765-305.995294 255.096471-41.261176-49.091765 301.678431-251.582745-352.376471-352.276079 45.477647-45.17647 356.392157 356.291764z" fill="#21B3FF" /><path d="M0 95.974902a96.376471 95.974902 0 1 0 192.752941 0 96.376471 95.974902 0 1 0-192.752941 0Z" fill="#2DCACF" /><path d="M771.011765 896a128.501961 128 0 1 0 257.003921 0 128.501961 128 0 1 0-257.003921 0Z" fill="#379DF8" /><path d="M835.262745 95.974902a96.376471 95.974902 0 1 0 192.752941 0 96.376471 95.974902 0 1 0-192.752941 0Z" fill="#F85858" /><path d="M0 768a128.501961 128 0 1 0 257.003922 0 128.501961 128 0 1 0-257.003922 0Z" fill="#FFA100" /><path d="M257.003922 479.974902a224.878431 223.974902 0 1 0 449.756862 0 224.878431 223.974902 0 1 0-449.756862 0Z" fill="#217FFF" /></svg>