<?xml version="1.0" standalone="no"?><!DOCTYPE svg PUBLIC "-//W3C//DTD SVG 1.1//EN" "http://www.w3.org/Graphics/SVG/1.1/DTD/svg11.dtd"><svg class="icon" width="200px" height="200.00px" viewBox="0 0 1024 1024" version="1.1" xmlns="http://www.w3.org/2000/svg"><path d="M511.879908 511.879908m-511.879908 0a511.879908 511.879908 0 1 0 1023.759816 0 511.879908 511.879908 0 1 0-1023.759816 0Z" fill="#E16B5A" /><path d="M963.421972 753.055326c-0.583863-1.639615-1.303694-3.247238-1.967538-4.854861-0.583863-1.671608-1.311692-3.279231-1.983535-4.918846-0.583863-1.671608-1.311692-3.279231-1.983535-4.90285-0.583863-1.671608-1.311692-3.295227-1.991532-4.934842-0.575865-1.655612-1.303694-3.247238-1.975537-4.870857-0.583863-1.671608-1.303694-3.279231-1.975536-4.918846-0.591861-1.671608-1.311692-3.263234-1.983535-4.90285-0.591861-1.671608-1.311692-3.295227-1.999531-4.934842-0.575865-1.655612-1.295696-3.247238-1.967538-4.870857-0.591861-1.687604-1.327689-3.311223-1.999531-4.950839-0.591861-1.655612-1.311692-3.247238-1.983535-4.870857-0.575865-1.671608-1.311692-3.279231-1.983534-4.90285-0.583863-1.687604-1.311692-3.295227-1.983535-4.934842-0.583863-1.655612-1.311692-3.263234-1.983535-4.870857-0.575865-1.671608-1.311692-3.279231-1.983534-4.918846-0.575865-1.671608-1.311692-3.279231-1.983535-4.90285-0.583863-1.687604-1.303694-3.295227-1.983535-4.934842-0.583863-1.655612-1.303694-3.263234-1.975536-4.870858-0.583863-1.671608-1.311692-3.279231-1.983535-4.918845-0.583863-1.671608-1.311692-3.279231-1.983534-4.90285-0.591861-1.687604-1.311692-3.295227-1.991533-4.934842-0.583863-1.655612-1.303694-3.247238-1.975537-4.870858-0.583863-1.671608-1.311692-3.279231-1.983534-4.918846-0.583863-1.671608-1.31969-3.295227-1.999531-4.950838-0.583863-1.655612-1.303694-3.247238-1.975537-4.870857-0.591861-1.671608-1.311692-3.279231-1.991533-4.918846-0.583863-1.655612-1.303694-3.263234-1.975536-4.886854-0.575865-1.671608-1.311692-3.279231-1.983535-4.90285-0.575865-1.671608-1.311692-3.279231-1.983534-4.902849-0.591861-1.687604-1.311692-3.295227-1.983535-4.934843-0.591861-1.655612-1.311692-3.263234-1.983535-4.886853-0.575865-1.671608-1.311692-3.279231-1.983534-4.90285-0.575865-1.671608-1.311692-3.279231-1.983535-4.90285-0.591861-1.687604-1.311692-3.295227-1.983535-4.934842-0.583863-1.655612-1.311692-3.263234-1.983534-4.886853-0.575865-1.671608-1.311692-3.279231-1.983535-4.90285-0.583863-1.687604-1.311692-3.311223-1.999531-4.950839-0.575865-1.655612-1.295696-3.247238-1.967538-4.870857-0.591861-1.671608-1.311692-3.295227-1.999531-4.934842-0.575865-1.655612-1.295696-3.247238-1.967538-4.870857-0.583863-1.671608-1.311692-3.279231-1.983535-4.90285-0.583863-1.671608-1.311692-3.279231-1.983535-4.918846-0.591861-1.671608-1.311692-3.295227-1.991533-4.934842-0.583863-1.655612-1.303694-3.247238-1.975536-4.870858-0.575865-1.671608-1.311692-3.279231-1.983535-4.902849-0.575865-1.671608-1.311692-3.279231-1.983534-4.918846-0.591861-1.671608-1.311692-3.295227-1.991533-4.934843-0.583863-1.655612-1.303694-3.247238-1.975537-4.870857-0.575865-1.66361-1.311692-3.279231-1.983534-4.910848-0.575865-1.671608-1.311692-3.279231-1.983535-4.910848-0.591861-1.679606-1.311692-3.303225-1.999531-4.950838-0.575865-1.66361-1.295696-3.271233-1.983534-4.886854-0.575865-1.655612-1.295696-3.255236-1.967539-4.878855-0.591861-1.671608-1.311692-3.279231-1.983534-4.910848-0.591861-1.671608-1.311692-3.279231-1.983535-4.910848-0.591861-1.679606-1.311692-3.287229-1.999531-4.926844-0.575865-1.655612-1.295696-3.255236-1.967538-4.878855-0.583863-1.671608-1.311692-3.279231-1.983535-4.910848-0.583863-1.671608-1.311692-3.279231-1.983535-4.90285-0.591861-1.687604-1.311692-3.295227-1.991532-4.934842-0.583863-1.655612-1.303694-3.255236-1.975537-4.878855-0.583863-1.671608-1.311692-3.279231-1.983535-4.910848-0.583863-1.671608-1.311692-3.279231-1.983534-4.90285-0.583863-1.671608-1.311692-3.279231-1.983535-4.910848-0.591861-1.687604-1.327689-3.319221-2.007529-4.974833-0.583863-1.639615-1.295696-3.231242-1.967538-4.838865-0.583863-1.671608-1.311692-3.279231-1.983535-4.902849-0.583863-1.671608-1.311692-3.279231-1.983535-4.910848-0.583863-1.679606-1.311692-3.295227-1.991532-4.934842-0.575865-1.655612-1.295696-3.255236-1.975537-4.878856-0.583863-1.671608-1.303694-3.279231-1.975536-4.902849-0.591861-1.671608-1.311692-3.279231-1.983535-4.910848-0.591861-1.679606-1.311692-3.295227-1.999531-4.934843-0.575865-1.655612-1.295696-3.255236-1.967538-4.878855-0.591861-1.671608-1.311692-3.279231-1.983535-4.90285-0.583863-1.671608-1.311692-3.279231-1.983535-4.910848-0.583863-1.671608-1.311692-3.279231-1.983534-4.910847-0.591861-1.687604-1.327689-3.311223-2.015527-4.966835-0.575865-1.639615-1.295696-3.231242-1.967539-4.838865-0.575865-1.671608-1.311692-3.279231-1.983534-4.910848-0.575865-1.671608-1.303694-3.279231-1.975537-4.910848-0.591861-1.679606-1.311692-3.295227-1.991533-4.934842-0.583863-1.655612-1.303694-3.247238-1.975536-4.870857-0.583863-1.671608-1.311692-3.279231-1.983535-4.910848-0.583863-1.671608-1.311692-3.279231-1.983535-4.910848-0.591861-1.671608-1.311692-3.295227-1.991532-4.934842-0.583863-1.655612-1.303694-3.247238-1.975537-4.870857-0.583863-1.671608-1.311692-3.279231-1.983535-4.910848-0.583863-1.671608-1.311692-3.271233-1.983534-4.910848-0.583863-1.671608-1.311692-3.295227-1.991533-4.934842-0.575865-1.655612-1.295696-3.247238-1.967538-4.870858-0.591861-1.679606-1.327689-3.303225-1.999531-4.950838-0.591861-1.655612-1.311692-3.247238-1.983535-4.870857-0.575865-1.671608-1.311692-3.279231-1.983535-4.90285-0.591861-1.687604-1.311692-3.295227-1.983534-4.934842-0.591861-1.655612-1.311692-3.255236-1.983535-4.870858-0.575865-1.671608-1.311692-3.279231-1.983534-4.918846-13.772769-39.182807-53.163527-68.775865-95.129682-68.775864h-327.923066c-2.68737 0-5.358743 0.167961-8.01412 0.399906-0.93578 0.095977-1.863563 0.207951-2.799343 0.327923a98.63286 98.63286 0 0 0-8.366038 1.375677c-1.607623 0.343919-3.191251 0.759822-4.782877 1.175725-0.999765 0.263938-2.015527 0.503882-3.007295 0.80781-0.015996 0-0.039991 0-0.055987 0.015996-36.639404 11.109394-66.800328 43.613768-72.359024 81.900786l-56.514741 367.489783a87.475477 87.475477 0 0 0-4.063047 26.401806v39.990618c0 12.749009 2.783347 24.834174 7.686197 35.791603 0.623854 1.655612 1.263704 3.311223 1.983535 4.902849 0.623854 1.671608 1.271702 3.327219 1.999531 4.934843 0.623854 1.655612 1.255705 3.279231 1.975536 4.886853 0.623854 1.655612 1.263704 3.295227 1.983535 4.90285 0.631852 1.671608 1.271702 3.327219 1.999531 4.934842 0.623854 1.655612 1.255705 3.279231 1.975536 4.886854 0.631852 1.655612 1.271702 3.311223 1.999531 4.934842 0.623854 1.639615 1.255705 3.279231 1.975537 4.870857 0.623854 1.655612 1.263704 3.295227 1.983534 4.90285 0.623854 1.655612 1.263704 3.311223 1.983535 4.918846 0.631852 1.655612 1.271702 3.311223 1.999531 4.934842 0.623854 1.639615 1.255705 3.279231 1.975536 4.870857 0.623854 1.655612 1.263704 3.295227 1.983535 4.90285 0.623854 1.655612 1.263704 3.311223 1.983535 4.918846 0.631852 1.655612 1.271702 3.311223 1.999531 4.934842 0.623854 1.639615 1.255705 3.279231 1.975536 4.870858 0.623854 1.655612 1.263704 3.295227 1.983535 4.902849 0.623854 1.655612 1.263704 3.311223 1.983534 4.918846 0.631852 1.671608 1.2797 3.343216 2.007529 4.966835 0.615856 1.639615 1.247707 3.263234 1.959541 4.838865 0.623854 1.655612 1.263704 3.295227 1.983534 4.90285 0.623854 1.655612 1.263704 3.311223 1.983535 4.918846 0.623854 1.655612 1.263704 3.295227 1.983535 4.902849 0.623854 1.671608 1.271702 3.311223 1.99953 4.934843 0.623854 1.639615 1.255705 3.279231 1.975537 4.870857 0.623854 1.655612 1.263704 3.311223 1.983535 4.918846 0.623854 1.655612 1.263704 3.295227 1.983534 4.90285 0.623854 1.655612 1.271702 3.311223 1.999531 4.934842 0.623854 1.639615 1.255705 3.279231 1.975537 4.870857 0.623854 1.655612 1.263704 3.311223 1.983534 4.918846 0.623854 1.655612 1.263704 3.295227 1.983535 4.90285 0.631852 1.671608 1.2797 3.343216 2.007529 4.966835 0.615856 1.639615 1.247707 3.263234 1.95954 4.838864 0.623854 1.655612 1.263704 3.311223 1.983535 4.918846 0.623854 1.655612 1.263704 3.295227 1.983535 4.90285 0.623854 1.655612 1.263704 3.295227 1.983534 4.90285 0.631852 1.671608 1.271702 3.327219 1.999531 4.934842 0.623854 1.655612 1.255705 3.279231 1.975537 4.886853 0.623854 1.639615 1.263704 3.295227 1.983534 4.90285 0.623854 1.655612 1.263704 3.295227 1.983535 4.90285 0.631852 1.671608 1.271702 3.327219 1.999531 4.934842 0.263938 0.703835 0.559869 1.391674 0.839803 2.079512a509.312511 509.312511 0 0 0 234.033093 56.6907c195.402157-0.247942 365.234313-109.862225 451.462083-270.952432z" fill="#D16354" /><path d="M827.805789 719.831121h-631.851762a7.958133 7.958133 0 0 1-6.046581-2.767351c-1.519643-1.751589-1.951542-13.228896-1.951542-29.225143l60.577788-393.883592c6.878386-47.420875 51.467925-86.003823 99.384683-86.003822h327.923066c47.916758 0 92.490301 38.582948 99.384684 86.003822l60.577788 393.883592c0 7.998124-0.439897 27.481553-1.951543 29.225143a7.958133 7.958133 0 0 1-6.046581 2.767351z" fill="#E6E6E6" /><path d="M775.226125 293.963034c-6.870388-47.420875-51.467925-86.003823-99.384684-86.003823h-23.99437c47.916758 0 92.490301 38.582948 99.384683 86.003823l60.577788 393.883591c0 7.998124-0.439897 27.481553-1.951542 29.225143a7.950135 7.950135 0 0 1-6.046582 2.767351h23.994371c2.319456 0 4.526938-0.999765 6.046581-2.767351 1.511645-1.751589 1.951542-21.22702 1.951543-29.225143l-60.577788-393.883591z" fill="#BFBFBF" /><path d="M747.824553 815.808604h-471.88929c-48.508619 0-87.979359-39.462742-87.979359-87.97936v-39.990617c0-48.500621 39.47074-87.979359 87.979359-87.97936h471.88929c48.500621 0 87.979359 39.478738 87.97936 87.97936v39.990617c0 48.524616-39.478738 87.979359-87.97936 87.97936z" fill="#BFBFBF" /><path d="M275.935263 799.812357c-39.694687 0-71.983112-32.288425-71.983112-71.983113v-39.990617c0-39.694687 32.288425-71.983112 71.983112-71.983112h471.88929c39.694687 0 71.983112 32.288425 71.983112 71.983112v39.990617c0 39.694687-32.288425 71.983112-71.983112 71.983113h-471.88929z" fill="#E6E6E6" /><path d="M694.509062 707.833936m-39.990618 0a39.990618 39.990618 0 1 0 79.981235 0 39.990618 39.990618 0 1 0-79.981235 0Z" fill="#F5F5F5" /><path d="M694.509062 707.833936m-23.994371 0a23.994371 23.994371 0 1 0 47.988741 0 23.994371 23.994371 0 1 0-47.988741 0Z" fill="#BFBFBF" /><path d="M527.876155 503.889783c-57.33055 0-103.975606-46.645057-103.975606-103.975607v-15.996247a7.998124 7.998124 0 1 1 15.996247 0v15.996247c0 48.508619 39.47074 87.979359 87.979359 87.97936 48.500621 0 87.979359-39.47074 87.97936-87.97936 0-48.500621-39.478738-87.979359-87.97936-87.979359a7.998124 7.998124 0 1 1 0-15.996247c57.33055 0 103.975606 46.645057 103.975607 103.975606s-46.645057 103.975606-103.975607 103.975607z" fill="#E16B5A" /><path d="M463.883169 407.9123a7.918142 7.918142 0 0 1-4.790876-1.599625l-27.19362-20.395215-27.193621 20.395215a7.982127 7.982127 0 1 1-9.597748-12.781001l31.992494-23.994371a7.966131 7.966131 0 0 1 9.597749 0l31.992494 23.994371a7.982127 7.982127 0 0 1-4.806872 14.380626z" fill="#E16B5A" /></svg>