<?xml version="1.0" standalone="no"?><!DOCTYPE svg PUBLIC "-//W3C//DTD SVG 1.1//EN" "http://www.w3.org/Graphics/SVG/1.1/DTD/svg11.dtd"><svg class="icon" width="200px" height="185.68px" viewBox="0 0 1103 1024" version="1.1" xmlns="http://www.w3.org/2000/svg"><path d="M283.656163 980.769061H265.549167c-0.00431 0 8.18931 1.788718 18.106996 0z m326.417295-0.01293c-48.028151 0.01293-52.21763-39.82591-52.515031-50.084099v-61.46724H318.046957v59.057859c0 38.700957-19.206088 49.799628-34.390794 52.49348" fill="#F0F0FF" /><path d="M273.699686 998.93209c-8.034145 0-17.262204-1.560279-21.951662-7.827257l-20.641373-27.572115h50.8901c6.232496-1.267188 18.813863-5.663555 18.813863-35.265757v-76.298513h273.992777v78.440664c0.495669 15.163155 7.051427 33.110675 35.252826 33.110675h0.017241l0.00862 34.481307h-0.025861c-50.053928 0-68.84193-35.998485-69.725513-66.829083l-0.00431-0.495669v-44.226587H335.287611v41.817206c0 54.85545-33.929606 66.850634-48.575542 69.458283v0.01293c-2.525756 0.452567-7.486754 1.193915-13.012383 1.193916z" fill="#6E6E96" /><path d="M17.800975 780.609383V252.329896c0-36.093308 29.528929-65.626548 65.622238-65.626548h708.754649c36.093308 0 65.626548 29.53324 65.626547 65.626548v528.279487" fill="#B4D1F2" /><path d="M857.81734 728.124523v75.462341c0 36.097618-29.54186 65.626548-65.630858 65.626548H83.431833c-36.101929 0-65.617928-29.53755-65.617928-65.626548v-75.462341h840.003435z" fill="#F0F0FF" /><path d="M361.002046 719.530057L857.81303 195.315054v169.298909l-329.503372 354.916094z" fill="#DEEFFF" /><path d="M857.81303 364.613963l-329.503372 354.916094h329.503372z" fill="#FFFFFF" /><path d="M792.186482 886.449755H83.431833c-45.687732 0-82.858581-37.175159-82.858581-82.867201v-92.702994h874.484742v92.702994c0 45.692042-37.175159 82.867202-82.871512 82.867201zM35.054559 745.365177v58.221687c0 26.675601 21.701673 48.385894 48.377274 48.385894h708.754649c26.679911 0 48.390204-21.705983 48.390204-48.385894v-58.221687H35.054559z" fill="#6E6E96" /><path d="M875.045063 780.609383h-34.481307V252.329896c0-26.679911-21.705983-48.385894-48.385894-48.385894H83.423213c-26.675601 0-48.381584 21.705983-48.381585 48.385894v528.279487h-34.481307V252.329896c0-45.692042 37.170849-82.867202 82.862892-82.867202h708.754649c45.692042 0 82.867202 37.175159 82.867201 82.867202v528.279487z" fill="#6E6E96" /><path d="M17.800975 675.975856h840.012055v34.908014H17.800975zM318.046957 869.204792h239.51578v41.886168H318.046957z" fill="#6E6E96" /><path d="M462.532255 812.095127H407.176826a17.240654 17.240654 0 0 1 0-34.481308h55.355429a17.240654 17.240654 0 0 1 0 34.481308zM628.227866 998.009715H244.981067a17.240654 17.240654 0 0 1 0-34.481307h383.246799a17.240654 17.240654 0 0 1 0 34.481307z" fill="#6E6E96" /><path d="M792.186482 819.931004H83.431833c-36.101929 0-65.617928-29.54186-65.617928-65.626548v43.79126c0 36.093308 29.520309 65.635168 65.617928 65.635168h708.754649c36.088998 0 65.630858-29.53755 65.630858-65.635168v-43.79126c0 36.101929-29.54186 65.626548-65.630858 65.626548z" fill="#6E6E96" /><path d="M445.938126 984.988711V542.209935c0-34.106323 16.34414-38.593203 36.313126-38.593203h528.852739c19.977607 0 36.326057 4.499811 36.326057 38.593203v442.778776" fill="#B4D1F2" /><path d="M463.282223 665.562502l122.085378-142.325906h172.277231l-291.509281 386.354427z" fill="#FFFFFF" /><path d="M848.528938 523.236596l-348.17931 427.046679h53.377064l348.18362-427.046679z" fill="#FFFFFF" /><path d="M741.011912 985.402487l282.880334-353.286853v141.40784l-187.612793 211.879013z" fill="#DEEFFF" /><path d="M1023.892246 773.523474l-187.612793 211.879013h187.612793z" fill="#FFFFFF" /><path d="M1060.123479 980.924227h-34.481307V542.197005c0-21.343929-5.193747-21.343929-19.076783-21.343929h-519.762604c-13.883036 0-19.081093 0-19.081094 21.343929v438.727222h-34.481307V542.197005c0-55.825236 40.312958-55.825236 53.562401-55.825237h519.766914c13.245132 0 53.55809 0 53.558091 55.825237v438.727222z" fill="#6E6E96" /><path d="M1075.829715 998.164881H411.383546a17.240654 17.240654 0 0 1 0-34.481308h664.446169a17.240654 17.240654 0 0 1 0 34.481308z" fill="#6E6E96" /><path d="M445.938126 929.792759h601.487612v51.131468H445.938126z" fill="#6E6E96" /></svg>