<?xml version="1.0" standalone="no"?><!DOCTYPE svg PUBLIC "-//W3C//DTD SVG 1.1//EN" "http://www.w3.org/Graphics/SVG/1.1/DTD/svg11.dtd"><svg class="icon" width="200px" height="200.00px" viewBox="0 0 1024 1024" version="1.1" xmlns="http://www.w3.org/2000/svg"><path d="M907 99.85a18 18 0 0 1 18 18v580a18 18 0 0 1-18 18H117a18 18 0 0 1-18-18v-580a18 18 0 0 1 18-18h790m0-2H117a20.06 20.06 0 0 0-20 20v580a20.06 20.06 0 0 0 20 20h790a20.06 20.06 0 0 0 20-20v-580a20.06 20.06 0 0 0-20-20z" fill="#0E6EC5" /><path d="M907 98.85H117a19 19 0 0 0-19 19v580a19 19 0 0 0 19 19h790a19 19 0 0 0 19-19v-580a19 19 0 0 0-19-19z m-10 575a14 14 0 0 1-14 14H141a14 14 0 0 1-14-14v-532a14 14 0 0 1 14-14h742a14 14 0 0 1 14 14z" fill="#01B0F1" /><path d="M256.7 877.15l509.95 0 0 48-509.95 0 0-48Z" fill="#01B0F1" /><path d="M742.77 878.15A22.9 22.9 0 0 1 765.65 901v0.24a22.9 22.9 0 0 1-22.88 22.88H280.58a22.9 22.9 0 0 1-22.88-22.88V901a22.9 22.9 0 0 1 22.88-22.88h462.19m0-2H280.58A25 25 0 0 0 255.7 901v0.24a25 25 0 0 0 24.88 24.88h462.19a25 25 0 0 0 24.88-24.88V901a25 25 0 0 0-24.88-24.88z" fill="#0E6EC5" /><path d="M745.77 207.29a1.37 1.37 0 0 1 1.37 1.37V607a1.37 1.37 0 0 1-1.37 1.37H278.23a1.37 1.37 0 0 1-1.37-1.37V208.66a1.37 1.37 0 0 1 1.37-1.37h467.54m0-14H278.23a15.37 15.37 0 0 0-15.37 15.37V607a15.37 15.37 0 0 0 15.37 15.37h467.54A15.37 15.37 0 0 0 761.14 607V208.66a15.37 15.37 0 0 0-15.37-15.37z" fill="#0FCE9A" /><path d="M747.18 281a1.25 1.25 0 0 1 1.24 1.24v326.21a1.25 1.25 0 0 1-1.24 1.24H276.82a1.25 1.25 0 0 1-1.24-1.24V282.22a1.25 1.25 0 0 1 1.24-1.24h470.36m0-12.72H276.82a14 14 0 0 0-14 14v326.19a14 14 0 0 0 14 14h470.36a14 14 0 0 0 14-14V282.22a14 14 0 0 0-14-14zM348.51 170.3a7 7 0 0 0-7 7v53.42a7 7 0 0 0 14 0V177.3a7 7 0 0 0-7-7zM676.51 170.3a7 7 0 0 0-7 7v53.42a7 7 0 0 0 14 0V177.3a7 7 0 0 0-7-7zM395.37 170.3a7 7 0 0 0-7 7v53.42a7 7 0 0 0 14 0V177.3a7 7 0 0 0-7-7zM442.23 170.3a7 7 0 0 0-7 7v53.42a7 7 0 0 0 14 0V177.3a7 7 0 0 0-7-7zM489.08 170.3a7 7 0 0 0-7 7v53.42a7 7 0 0 0 14 0V177.3a7 7 0 0 0-7-7zM535.94 170.3a7 7 0 0 0-7 7v53.42a7 7 0 0 0 14 0V177.3a7 7 0 0 0-7-7zM582.8 170.3a7 7 0 0 0-7 7v53.42a7 7 0 0 0 14 0V177.3a7 7 0 0 0-7-7zM629.66 170.3a7 7 0 0 0-7 7v53.42a7 7 0 0 0 14 0V177.3a7 7 0 0 0-7-7z" fill="#0FCE9A" /><path d="M518.33 347.34A104.32 104.32 0 1 1 414 451.66a104.44 104.44 0 0 1 104.33-104.32m0-14a118.32 118.32 0 1 0 118.33 118.32 118.32 118.32 0 0 0-118.33-118.32z" fill="#0FCE9A" /><path d="M518.33 391a60.65 60.65 0 1 1-60.65 60.65A60.72 60.72 0 0 1 518.33 391m0-8.14a68.79 68.79 0 1 0 68.79 68.79 68.79 68.79 0 0 0-68.79-68.79z" fill="#0FCE9A" /><path d="M498.13 447.63H352.36a3.61 3.61 0 0 0-3.6 3.6v0.86a3.61 3.61 0 0 0 3.6 3.6h145.77a3.61 3.61 0 0 0 3.6-3.6v-0.86a3.61 3.61 0 0 0-3.6-3.6zM692.07 447.63H538.63a3.7 3.7 0 0 0-3.69 3.69v0.68a3.7 3.7 0 0 0 3.69 3.69h153.44a3.7 3.7 0 0 0 3.69-3.69v-0.68a3.7 3.7 0 0 0-3.69-3.69zM519 298.92h-1.29a3.39 3.39 0 0 0-3.38 3.38v128.37a3.39 3.39 0 0 0 3.38 3.38H519a3.39 3.39 0 0 0 3.38-3.38V302.31a3.39 3.39 0 0 0-3.38-3.38zM519 470.28h-1.43a3.33 3.33 0 0 0-3.32 3.32v123.34a3.33 3.33 0 0 0 3.32 3.32H519a3.33 3.33 0 0 0 3.32-3.32V473.6a3.33 3.33 0 0 0-3.32-3.32z" fill="#FFBE00" /><path d="M791.5 701.16m-130 0a130 130 0 1 0 260 0 130 130 0 1 0-260 0Z" fill="#0E6EC5" /><path d="M751.12 709.83v7.41a6.83 6.83 0 0 1-0.33 2.36 3.76 3.76 0 0 1-1.23 1.6 11.78 11.78 0 0 1-2.29 1.37 39.33 39.33 0 0 1-7.78 2.77 35.86 35.86 0 0 1-8.14 0.87 30.16 30.16 0 0 1-9.36-1.37 20.25 20.25 0 0 1-7.2-4 17.46 17.46 0 0 1-4.57-6.33 20.89 20.89 0 0 1-1.59-8.31 21.43 21.43 0 0 1 1.55-8.26 16.8 16.8 0 0 1 4.56-6.36 20.62 20.62 0 0 1 7.32-4 31.93 31.93 0 0 1 9.78-1.39 27.67 27.67 0 0 1 8 1 18.46 18.46 0 0 1 5.62 2.63 12.29 12.29 0 0 1 3.25 3.35 6.16 6.16 0 0 1 1.09 3.14 3.17 3.17 0 0 1-1.26 2.52 4.79 4.79 0 0 1-4.89 0.65 4.15 4.15 0 0 1-1.5-1.11 31.85 31.85 0 0 0-2.82-3.43 9.19 9.19 0 0 0-3.11-2 13.47 13.47 0 0 0-5-0.79 15.64 15.64 0 0 0-5.59 0.94 11.57 11.57 0 0 0-4.21 2.72 11.84 11.84 0 0 0-2.67 4.37 16.89 16.89 0 0 0-0.93 5.72q0 6.81 3.6 10.47t10 3.67a23.35 23.35 0 0 0 5.88-0.71 32.28 32.28 0 0 0 5.57-2v-6.28h-7a8.63 8.63 0 0 1-3.81-0.66 2.31 2.31 0 0 1-1.29-2.24 2.61 2.61 0 0 1 1.08-2.14 4.63 4.63 0 0 1 2.93-0.84H745a14.93 14.93 0 0 1 3.19 0.29 3.64 3.64 0 0 1 2.11 1.29 4.74 4.74 0 0 1 0.82 3.08zM779.31 686.21a26.73 26.73 0 0 1 11.89 2.44 17 17 0 0 1 7.52 6.94 21.06 21.06 0 0 1 2.55 10.57 22.73 22.73 0 0 1-1.4 8.15 17.23 17.23 0 0 1-4.19 6.36 18.61 18.61 0 0 1-6.86 4.12 30.91 30.91 0 0 1-18.68 0 18.84 18.84 0 0 1-6.9-4.13 17.2 17.2 0 0 1-4.18-6.41 22.78 22.78 0 0 1-1.41-8.1 22 22 0 0 1 1.47-8.18 17.2 17.2 0 0 1 4.27-6.33 18.81 18.81 0 0 1 6.8-4 27.83 27.83 0 0 1 9.12-1.43z m12.82 19.89a16.09 16.09 0 0 0-1.58-7.36A10.75 10.75 0 0 0 786 694a14.8 14.8 0 0 0-11.73-0.71 11 11 0 0 0-3.95 2.57 11.86 11.86 0 0 0-2.61 4.31 17.15 17.15 0 0 0-1 5.9 17.58 17.58 0 0 0 1 6 11.82 11.82 0 0 0 2.7 4.42 11.37 11.37 0 0 0 4 2.63 14.38 14.38 0 0 0 11.33-0.63 11 11 0 0 0 4.62-4.64 15.94 15.94 0 0 0 1.77-7.74zM835.11 721.17l-2.11-4.85h-18.1l-2.13 5a16.5 16.5 0 0 1-2.13 3.92 3.64 3.64 0 0 1-2.89 1 4.58 4.58 0 0 1-3-1.08 3.15 3.15 0 0 1-1.31-2.45 4.83 4.83 0 0 1 0.3-1.64q0.3-0.84 1-2.35l11.39-25.12 1.17-2.6a12.56 12.56 0 0 1 1.46-2.52 5.7 5.7 0 0 1 2-1.62 7 7 0 0 1 3.11-0.62 7.1 7.1 0 0 1 3.14 0.62 5.86 5.86 0 0 1 2 1.6 10.84 10.84 0 0 1 1.31 2.1q0.53 1.12 1.35 3l11.63 25a11.3 11.3 0 0 1 1.37 4.14 3.25 3.25 0 0 1-1.29 2.47 5 5 0 0 1-4.94 0.79 3.67 3.67 0 0 1-1.28-0.9 8 8 0 0 1-1.11-1.74q-0.51-1.25-0.94-2.15z m-17.86-10.74h13.3l-6.71-16zM860.2 691v28.15h18.29a5.32 5.32 0 0 1 3.36 0.92 2.84 2.84 0 0 1 1.17 2.32 2.77 2.77 0 0 1-1.15 2.31 5.47 5.47 0 0 1-3.37 0.88h-21.79a6.37 6.37 0 0 1-4.24-1.13 4.65 4.65 0 0 1-1.29-3.67V691a4.73 4.73 0 0 1 1.23-3.56 4.46 4.46 0 0 1 3.24-1.19 4.24 4.24 0 0 1 4.55 4.75z" fill="#FFFFFF" /></svg>