<?xml version="1.0" standalone="no"?><!DOCTYPE svg PUBLIC "-//W3C//DTD SVG 1.1//EN" "http://www.w3.org/Graphics/SVG/1.1/DTD/svg11.dtd"><svg class="icon" width="200px" height="200.00px" viewBox="0 0 1024 1024" version="1.1" xmlns="http://www.w3.org/2000/svg"><path d="M443.008 241.152l-41.216-34.304A64 64 0 0 0 360.832 192H128a64 64 0 0 0-64 64v512a64 64 0 0 0 64 64h768a64 64 0 0 0 64-64V320a64 64 0 0 0-64-64H483.968a64 64 0 0 1-40.96-14.848" fill="#0277BD" /><path d="M704 576v320h-128v-192l-64 64-64-64v192h-128V576h128l64 64 64-64z m320 192l-128 160-128-160h64v-192h128v192z" fill="#B3E5FC" /></svg>