<?xml version="1.0" standalone="no"?><!DOCTYPE svg PUBLIC "-//W3C//DTD SVG 1.1//EN" "http://www.w3.org/Graphics/SVG/1.1/DTD/svg11.dtd"><svg class="icon" width="200px" height="200.00px" viewBox="0 0 1024 1024" version="1.1" xmlns="http://www.w3.org/2000/svg"><path d="M512.8 512m-512 0a512 512 0 1 0 1024 0 512 512 0 1 0-1024 0Z" fill="#F6F7FB" /><path d="M885.6 379.2c0 98.4-80 178.4-178.4 178.4s-178.4-80-178.4-178.4S608.8 200 707.2 200v178.4l178.4 0.8z" fill="#5756B4" /><path d="M746.4 168.8c94.4 0 171.2 76.8 171.2 171.2v7.2H738.4V168.8h8z" fill="#B3E3EF" /><path d="M80 582.4c0 187.2 152 339.2 339.2 339.2s339.2-152 339.2-339.2-152-339.2-339.2-339.2S80 395.2 80 582.4z" fill="#DFE8FD" /><path d="M388.8 511.2h40.8c16 0 24.8 8 24.8 24.8v129.6c0 16-8 24.8-24.8 24.8h-40.8c-16 0-24.8-8-24.8-24.8V536c0.8-16.8 8.8-24.8 24.8-24.8zM228 735.2h362.4c8 0 12 4 12 12v4.8c0 8-4 12-12 12H228c-8 0-12-4-12-12v-5.6c0-7.2 4-11.2 12-11.2z" fill="#5756B4" /><path d="M240 422.4h40.8c16 0 24.8 8 24.8 24.8v219.2c0 16-8 24.8-24.8 24.8H240c-16 0-24.8-8-24.8-24.8V446.4c0.8-16 8.8-24 24.8-24zM538.4 348h40.8c16 0 24.8 8 24.8 24.8v308.8c0 16-8 24.8-24.8 24.8h-40.8c-16 0-24.8-8-24.8-24.8V372c0-16 8-24 24.8-24z" fill="#FABDDE" /></svg>